<svg width="360.000000" height="527.000000" viewBox="0 0 360 527" fill="none" xmlns="http://www.w3.org/2000/svg" xmlns:xlink="http://www.w3.org/1999/xlink">
	<desc>
			Created with Pixso.
	</desc>
	<defs>
		<clipPath id="clip1_69">
			<rect id="IMAGE" rx="0.000000" width="359.000000" height="526.000000" transform="translate(0.500000 0.500000)" fill="white" fill-opacity="0"/>
		</clipPath>
	</defs>
	<g clip-path="url(#clip1_69)">
		<path id="Vector" d="M46.94 311.37C53 282.68 74.48 260.41 103.36 249.31C108.92 246.17 114.3 232.69 121.76 230.23C122.96 229.83 121.07 232.98 121.76 233.17C124.23 233.84 126.99 233.91 129.72 231.49C134.59 227.16 136.12 214.51 139.08 208.79C154.69 178.64 193.68 190.44 198.9 223.77C202.55 226.14 207.69 228.23 211.66 230.15C215.74 232.12 219.33 236.89 223.54 238.6C227.29 240.12 233.48 239.04 237.26 240.37C254.66 246.47 269.39 254.17 280.94 269.78C283.38 273.07 286.12 277.12 288.34 280.44C299.75 293.59 307.69 308.33 314.99 324.14C335.43 370.55 340.99 421.94 345.98 471.94C345.86 480.69 351.67 504.95 343.08 509.14C343.6 509.68 343.41 510.75 342.46 510.74C320.69 510.52 298.97 512.46 277.54 516.25C267.2 518.08 256.92 520.59 246.39 521C224.52 520.85 202.74 517.18 180.91 520.65C154.66 520.65 122.76 519.89 93.56 518.76C66.27 517.71 38.83 520.08 11.87 515.44C9.74 515.11 8.7 512.5 9.15 510.64C12.31 499.11 13.86 487.25 15.64 475.45C15.28 467.89 15.91 459.99 18.71 452.94C26.02 405.37 35.4 358.1 46.94 311.37Z" fill="#FFDBB4" fill-opacity="1.000000" fill-rule="evenodd"/>
		<path id="Vector" d="M121.76 233.34C121.07 233.15 122.96 230 121.76 230.4C114.3 232.87 108.92 246.35 103.36 249.49C74.48 260.58 53 282.85 46.94 311.55C35.4 358.28 26.02 405.54 18.71 453.12C15.91 460.16 15.28 468.06 15.64 475.63L15.36 477.49C13.69 488.67 12.14 499.89 9.15 510.81C8.7 512.68 9.74 515.28 11.87 515.62C38.52 520.21 65.64 517.94 92.63 518.9L98.25 519.11C126.14 520.14 156.06 520.83 180.91 520.83C202.74 517.36 224.52 521.02 246.39 521.17C256.92 520.76 267.2 518.26 277.54 516.43C298.97 512.64 320.69 510.69 342.46 510.91C343.41 510.92 343.6 509.85 343.08 509.32C351.67 505.13 345.86 480.86 345.98 472.12L345.53 467.61C340.64 419.03 334.82 369.33 314.99 324.31L314.4 323.03C307.26 307.71 299.45 293.41 288.34 280.61L287.66 279.6C285.57 276.49 283.13 272.91 280.94 269.95C269.39 254.35 254.66 246.65 237.26 240.54C233.48 239.21 227.29 240.29 223.54 238.77C219.6 237.17 216.21 232.9 212.44 230.74L212.44 246.84L158 300.49L127.11 253.13L123.97 233.73C123.22 233.68 122.48 233.54 121.76 233.34Z" fill="#8FA7DF" fill-opacity="1.000000" fill-rule="evenodd"/>
		<path id="Vector" d="M55.75 373.91C56.33 376.7 57.13 379.5 58.21 382.15C59.24 384.71 60.8 387 61.87 389.53C62.02 389.87 62.25 390.12 62.53 390.32L62.45 391.01L62.36 391.7C61.83 396.33 61.23 400.96 60.71 405.6L60.45 407.92C59.43 417.6 57.81 427.23 56.55 436.89C55.32 446.35 54.07 455.81 52.73 465.25C51.35 474.98 49.94 484.71 48.29 494.4C47.6 498.5 46.88 502.59 46.12 506.68L45.54 509.81C39.53 511.25 37.89 519.62 44.01 522.71C46.78 524.11 50.34 523.77 52.63 521.58C55.01 519.29 55.11 515.17 55.66 512.07L56.19 509.19C60.16 487.54 63.61 465.65 65.23 443.69C65.64 438.03 65.99 432.35 66.22 426.68C66.43 421.34 66.33 416 66.41 410.66L66.44 409.2C66.57 403.5 66.46 397.82 66.31 392.12C66.3 391.43 66.27 390.73 66.23 390.04C66.43 389.8 66.58 389.52 66.64 389.25L66.71 388.89C66.91 387.97 66.69 386.89 65.98 386.24C65.68 382.36 65.27 378.48 65.17 374.61C65.16 374.29 64.7 374.3 64.67 374.61C64.41 377.9 63.9 381.21 63.39 384.52C60.07 381.85 57.63 377.46 56.18 373.79C56.08 373.52 55.69 373.62 55.75 373.91ZM134.1 219.68C133.55 222.19 132.46 224.45 131.01 226.55C130.31 227.55 129.52 228.48 128.58 229.27C127.77 229.93 126.84 230.37 125.98 230.95C124.72 230.75 123.41 231.23 122.53 232.15L122.67 230.8C122.71 230.37 121.98 230.28 121.9 230.7C118.08 249.96 114.6 269.22 111.59 288.62L110.27 297.18L109.03 305.22C106.96 318.62 104.97 332.01 103.46 345.51C101.46 363.52 99.78 381.57 98.55 399.66C97.31 417.87 96.55 436.09 96.01 454.34C95.88 458.94 95.73 463.53 95.59 468.13L94.66 462.63C93.73 457.13 92.82 451.63 92.04 446.1C89.23 426.33 86.99 406.42 85.89 386.48C84.89 368.23 85.23 349.61 89.87 331.83C91.04 327.36 92.47 322.96 94.2 318.67C95.87 314.5 98.16 310.63 99.96 306.52C102.05 301.74 102.68 297.22 101.6 292.07C100.66 287.59 99.01 283.37 98.71 278.75C98.16 270.18 100.95 261.88 104.89 254.38C105.92 252.4 107.02 250.45 108.16 248.52C111.62 242.68 115.52 237.05 119.57 231.65C119.79 231.36 119.33 231.04 119.09 231.28C115.4 234.93 111.37 238.51 108.04 242.5C106.43 244.43 104.86 246.41 103.36 248.44C86.99 251.18 72.93 261.37 63.31 274.84C52.4 290.12 46.88 308.52 42.8 326.63C38.25 346.76 34.42 367.08 30.35 387.31C26.12 408.24 21.92 429.18 17.67 450.11C15.56 460.5 13.45 470.89 11.34 481.28C10.27 486.54 9.15 491.79 7.98 497.04C7.37 499.73 6.73 502.41 6.17 505.11C5.54 508.15 6.13 510.1 8.19 512.33C8.95 513.16 10.14 513.15 11.09 512.71L11.38 512.57L11.67 512.43C12.83 511.86 13.75 511.26 14.47 509.99C15.27 508.59 15.4 507.03 15.67 505.48C16.18 502.61 16.68 499.74 17.19 496.87C17.94 492.58 18.76 488.29 19.6 484.01L23.8 462.62C24.92 456.92 26.04 451.21 27.17 445.51C31.2 425.12 35.23 404.74 39.26 384.35C43.13 364.78 46.55 345.08 50.96 325.62L51.21 324.52L51.47 323.43C55.41 306.65 60.91 290.42 70.9 276.21C78.59 265.28 89.26 255.51 101.84 250.57C100.95 251.85 100.1 253.15 99.29 254.48C94.19 262.8 90.47 272.69 91.34 282.6C91.77 287.45 93.61 292.21 93.44 297.09C93.28 301.43 90.59 305.24 88.74 309.01C84.53 317.57 81.48 326.66 79.52 335.98C75.58 354.71 75.59 373.97 76.95 392.98C78.42 413.65 81.23 434.3 84.41 454.77C86.05 465.26 88.23 475.67 89.89 486.15C90.72 491.31 91.84 496.47 92.82 501.61L93.29 504.06C93.55 505.43 93.82 506.79 94.14 508.13L94.33 508.94L94.33 509.08C94.34 510.07 94.61 510.89 95.05 511.55C95.64 513.46 96.39 515.33 97.37 517.12C97.88 518.04 98.61 518.55 99.41 518.74C100.21 520.58 102.03 521.99 104.21 521.98L132.78 521.87C149.38 521.81 165.97 521.7 182.57 521.61C186.76 521.59 190.94 521.51 195.12 521.4C199.05 521.29 202.81 520.82 206.69 520.33C211.07 519.78 213.44 516.68 212.78 512.3C212.64 511.34 212.48 510.38 212.34 509.42C213.21 509.7 214.25 509.57 214.95 508.88L215.61 508.24C216.52 507.34 217.34 506.45 217.92 505.24C218.51 504 219 502.7 219.53 501.43C220.66 498.71 221.77 495.97 222.85 493.23C225.01 487.74 227.17 482.23 229.18 476.68C233.15 465.7 236.67 454.55 239.73 443.27C245.18 423.15 249.12 402.65 251.61 381.96L252.21 377.03L252.38 375.57C253.32 367.55 254.12 359.41 253.74 351.41C253.51 346.4 252.73 341.35 250.86 336.67C249.13 332.35 246.47 328.66 243.93 324.8L243.64 324.36L243.35 323.9C241.13 320.4 239.37 316.74 239.28 312.48C239.19 308.16 240.45 303.96 241.86 299.92L242.21 298.92L242.44 298.26C245.43 289.91 248.84 281.67 247.72 272.58C246.06 259.19 237.94 248.4 227.73 240.08C236.81 241.87 245.8 245.43 253.73 249.93C263.1 255.25 271.53 262.28 278.81 270.21C292.55 285.19 302.36 303.17 310.39 321.74C318.8 341.16 325.03 361.52 329.73 382.15C334.46 402.89 337.62 423.96 339.78 445.12C340.86 455.65 341.71 466.2 342.41 476.76C342.77 482.18 343.04 487.6 343.45 493C343.87 498.4 344.06 503.88 345.38 509.13C345.99 511.58 350.14 511.83 350.59 509.13C351.57 503.11 351.3 496.88 351.02 490.78L351 490.23C350.73 484.15 350.37 478.08 349.96 472.01C349.1 459.61 347.96 447.22 346.47 434.87C341.23 391.52 331.59 348.39 312.67 308.82C303.76 290.18 292.32 272.07 276.41 258.61C268.84 252.21 260.3 247.1 251.1 243.4C242.87 240.09 234.51 238.52 225.77 238.53C221.39 235.17 216.68 232.24 211.97 229.74C211.69 229.58 211.39 229.95 211.63 230.19C211.75 230.3 211.87 230.43 211.99 230.54C211.46 230.57 210.91 230.82 210.42 231.34C208.69 233.15 207.23 235.42 205.93 237.77C203.94 240.25 202.05 242.81 200.07 245.26C196.9 249.19 193.65 253.06 190.36 256.9C184.85 263.35 179.15 269.69 173.21 275.76L172.22 276.78C169.13 279.9 166.02 283.63 162.37 286.1L162.18 286.23C160.64 287.23 159.55 287.41 158.24 285.92C157.05 284.56 156.06 282.98 155.04 281.48L154.8 281.13C149.6 273.57 144.77 265.73 140.4 257.65C138.41 253.98 136.52 250.25 134.72 246.48L134.19 245.35C133.21 243.27 132.15 241.24 131.34 239.1C131.16 238.6 130.97 238.09 130.79 237.6C133.54 235.79 135.67 231.89 136.44 228.84C137.25 225.67 136.84 222.41 135.41 219.51C135.14 218.96 134.23 219.1 134.1 219.68ZM269.7 348.6C270.07 360.66 270.31 372.74 270.87 384.79L271.07 388.91C270.18 389.89 269.66 391.03 270.08 392.59C270.24 393.19 270.72 393.73 271.31 393.93L271.5 397.76C272.34 414.97 273.32 432.15 275.13 449.32C277.38 470.81 279.99 492.26 282.6 513.71C282.97 516.75 285.08 519.15 288.36 518.71C291.69 518.26 293.04 515.37 292.6 512.35C290.89 500.52 289.24 488.68 287.79 476.81L286.15 463.29C284.09 446.39 281.97 429.48 279.54 412.63C278.53 405.59 277.47 398.55 276.41 391.51L276.78 391.03C278.29 389.06 279.86 387.14 281.41 385.2C284.39 381.47 287.32 377.76 290.05 373.85C290.18 373.65 289.91 373.37 289.71 373.51C285.89 376.34 282.27 379.36 278.63 382.43L275.45 385.12C273.62 372.96 271.8 360.79 270.18 348.6C270.14 348.3 269.69 348.27 269.7 348.6ZM214.72 233.17C217.02 235.34 219.37 237.46 221.69 239.61L222.54 240.41L223.38 241.2C227.45 245.07 231.35 249.09 234.6 253.7C240.57 262.18 244.13 272.52 241.65 282.87C239.59 291.45 234.86 299.22 233.59 308.01C232.96 312.41 233.27 316.84 234.92 321C236.62 325.24 239.32 328.87 241.75 332.7C247.03 341.02 247.75 350.15 247.23 359.78C246.68 369.84 245.52 379.91 244.09 389.88C241.21 410.09 236.85 430.08 231.09 449.67C228.2 459.47 224.8 469.07 221.41 478.7C219.72 483.5 217.75 488.18 215.72 492.84C214.65 495.29 213.56 497.73 212.44 500.17C212.86 496.73 212.86 493.2 213.06 489.78C213.34 484.89 213.71 480 214.05 475.11C214.73 465.18 215.34 455.24 215.89 445.31C217.82 409.87 219.24 374.4 219.14 338.91C219.09 321.17 218.72 303.42 217.96 285.69C217.6 277.34 216.91 269 216.28 260.66L216.15 258.87C215.6 251.39 214.93 243.89 213.79 236.47C214.13 235.71 214.42 234.94 214.64 234.15L214.72 233.85L214.66 233.86C214.71 233.62 214.73 233.39 214.72 233.17ZM194.83 202.67C194.78 202.47 194.49 202.48 194.44 202.67C193.14 207.04 193.6 211.84 194.72 216.23C195.32 218.6 196.18 220.91 197.21 223.14L197.57 223.92C198.46 225.81 199.46 227.77 201.18 228.95C201.9 229.44 203.19 229.47 203.91 228.95L204.27 228.67C204.33 228.62 204.39 228.57 204.45 228.52C205.12 227.96 205.46 226.72 205.15 225.9C204.35 223.78 202.54 222.23 201.28 220.34C200.18 218.67 199.2 216.9 198.38 215.06C196.62 211.09 195.83 206.87 194.83 202.67Z" fill="#000000" fill-opacity="1.000000" fill-rule="evenodd"/>
		<path id="Vector" d="M164.32 44.49C139.6 44.49 114.03 63.7 104.97 75.95C94.49 90.12 86.22 158.16 90.1 181.24C93.98 204.33 113.24 229.49 146.67 229.49C180.11 229.49 200.46 225.36 201.27 219.36C201.82 215.37 209.17 202.24 223.33 179.99C237.81 175.91 245.08 168.99 245.13 159.24C245.19 149.49 241.31 142.84 233.49 139.29C236.28 100.81 234.16 76.56 227.15 66.54C216.62 51.51 189.04 44.49 164.32 44.49Z" fill="#FFDBB4" fill-opacity="1.000000" fill-rule="evenodd"/>
		<path id="Vector" d="M180.99 7.22C177.66 3.29 171.8 7 171.93 11.29C170.6 11.65 169.04 12.89 168.43 14.51C167.12 14.42 165.81 14.68 164.62 15.36L164.37 15.05C160.26 10.02 154.82 5.7 149.2 9.41C147.67 10.42 146.99 12.09 147.33 13.89L147.35 14.02L147.23 13.46C147.1 12.93 147.29 13.99 147.36 14.22L147.37 14.24C147.52 14.62 147.67 14.81 147.8 15.1C142.05 11 133.3 13.4 137.91 21.32L136.03 20.59C129.55 18.08 121.48 15.38 115.56 19.9C112.92 22.45 115.85 25.85 118.55 26.67L118.08 26.59C112.91 25.71 102.12 23.54 100.58 30.28C100.03 32.71 101.65 34.49 103.68 35.46C99.37 35.45 95.11 36.16 91.38 38.27C87.83 40.8 90.7 44.99 94.41 44.8C93.26 46.23 92.88 48.65 93.99 50.19C91.88 50.74 89.93 51.46 88.14 52.57L87.65 52.64C84.06 53.08 79.96 53.35 77.99 56.88C75.09 64.55 85.43 64.24 89.87 61.55C89.61 61.98 89.41 62.45 89.3 62.95L87.86 63.35C82.43 64.87 76.29 66.54 72.8 71.12C71.2 73.75 73.43 78.23 76.77 77.43C67.7 81.76 71.18 93.17 80.05 87.23C80.47 87.62 80.97 87.91 81.5 88.03L79.63 89.05C74.87 91.66 69.15 95.23 70.14 101.16C71.09 104.3 75.43 103.72 77.64 102.52C73.78 105.84 70.14 109.44 66.84 113.33L65.93 114.42C63.36 117.51 58.89 123.19 63.73 126.16C69.7 129.2 72.67 120.21 76.14 117C73.37 123.55 82.39 128.11 85.54 121.52C86.07 121.61 86.6 121.62 87.13 121.55C84.41 124.44 77.07 144.18 86.2 139.85C87.66 138.31 88.93 136.62 90.11 134.85C88.64 146.16 87.57 157.53 86.87 168.9L86.63 173.02C86.37 177.3 86.18 181.59 86.66 185.86C87.22 190.82 88.64 195.47 90.79 199.97C92.78 204.12 95.34 207.96 98.27 211.49C99.84 213.38 101.5 215.21 103.55 216.6C105.18 217.7 107.08 218.42 108.91 219.12C111.89 222.1 115.72 224.36 119.46 226.16C125.62 229.13 132.31 230.76 139.07 231.58C145.98 232.42 152.97 232.21 159.82 231.02C166.38 229.89 173.4 226.99 177.43 221.46C177.78 220.98 177.13 220.53 176.71 220.73C165 226.16 151.83 227.58 139.07 225.87C133.11 225.07 127.25 223.42 121.82 220.86C117.23 218.7 113.36 215.55 109.24 212.71C108.44 211.64 107.63 210.59 106.7 209.61L105.26 208.1C104.19 206.96 103.13 205.8 102.17 204.56C99.2 200.72 96.74 196.37 95.11 191.8C91.95 182.89 92.81 173.21 93.37 163.93L93.42 163.11C93.99 153.17 94.93 143.28 96.22 133.42C96.76 129.31 97.36 125.21 98.02 121.13C99.07 119.41 100.2 117.75 101.46 116.19C100.43 120.18 103.98 125.73 108.33 123.1C113.32 118.83 113.08 111.93 117.25 106.71C121.58 100 151.45 86.97 160.33 85.14C158.9 87.22 156.29 88.68 155.68 91.14C144.76 100.81 162.56 105.96 168.12 92.17C168 96.76 167.53 101.31 166.51 105.79C165.03 109.91 163.87 121.83 171.3 118.23C174.86 119.26 177.58 116.22 178.03 112.79C180.6 120.54 178.17 132.92 182.88 138.64C184.33 140.14 186.56 139.14 187.32 137.42C191.68 136.28 191.3 131.18 191.83 127.53C195.81 142.07 200.79 152.17 201.48 167.34C198.4 171.73 205.15 174.96 208.05 171.44C212.12 165.55 208.37 157.5 207.41 151.05C208.55 150.99 209.68 150.48 210.63 149.37C211.14 151.39 210.85 154.06 210.68 156.25C213.25 166.36 223.06 159.89 222.65 151.69C223.08 154 223.4 156.34 223.6 158.69C221.71 160.87 220.3 163.49 219.47 166.26C218.88 168.27 220.91 169.47 222.46 169.18C223.29 172 226.87 174.04 229.22 171.34C231.55 168.98 231.96 165.57 232.14 162.17C232.47 161.83 232.66 161.38 232.63 160.83C232.6 160.31 232.47 159.88 232.27 159.51C232.31 158.82 232.36 158.14 232.44 157.48C234.24 163.1 233.07 168.98 232.91 174.74C229.73 176.54 226.09 177.3 222.45 178.06L221.92 178.17C220.79 178.41 220.43 180.09 221.28 180.8C219.02 183.02 217.07 185.66 215.17 188.1C212.64 191.34 210.22 194.7 207.88 198.07L206.49 200.05C202.47 205.81 196.89 213.6 199.39 220.68C199.73 221.66 201.15 222.01 201.7 220.99C203.52 217.63 204.53 213.92 206.26 210.53C207.95 207.19 210.06 204.1 212.15 201.01L213.35 199.22C215.36 196.23 217.35 193.21 219.19 190.13L220.47 188C221.68 185.98 222.87 183.9 223.76 181.74C226.93 182.5 230.24 181.95 233.27 180.63L233.31 180.84L233.39 181.22C233.82 183.05 236.34 184.3 237.95 183.1C241.8 180.2 243.37 175.87 243.78 171.24C244.55 169.93 245.21 168.55 245.74 167.12C246 169.97 247.1 172.73 250.48 172.65C256.34 172.17 256.92 166.61 255.33 161.09C262.28 163.21 263.1 153.36 260.9 148.17C261.72 147.93 262.47 147.45 262.9 146.79L263.26 147.42C264.6 149.74 266.11 151.99 268.22 153.19C271.17 154.87 275.45 152.79 275.26 149.09C274.63 143.06 269.35 138.47 266.14 133.64C266.71 133.72 267.31 133.7 267.89 133.59C274.31 137.18 277.37 128.74 275.11 123.84C273.45 119.45 270.46 115.67 267.24 112.34L268.19 112.9C269.89 113.91 271.78 114.87 273.65 114.48C285.87 122.53 289.88 108.99 276.17 104.76L276.17 104.7C277.55 103.37 278.14 101.26 277.07 99.16C282.1 100.93 289.29 96.92 284.85 91.45C281.96 88.72 278.55 86.37 274.76 85.14C274.95 84.13 275.01 83.11 274.94 82.08L275.16 82.11C277.55 82.46 280.5 83.43 281.97 80.86C282.72 79.56 282.63 77.42 281.4 76.41C277.19 72.94 272.38 70.05 267.15 68.88C266.96 68.24 266.76 67.6 266.55 66.97C271.01 66.89 276.01 60.96 270.89 57.59C266.39 55.3 261.75 53.82 256.67 53.95C259.65 51.01 257.89 45.67 253.93 44.85C256.52 39.31 250.11 36.46 245.33 37.33C245.51 34.87 244.19 32.13 241.66 31.51C242.99 23.72 234.77 24.46 229.61 26.3C231.34 23.3 229.56 19.77 226.52 18.72C221.54 17.59 216.76 22.35 212.97 25.27C214.26 22.22 213.17 19.41 210.09 18.2C206.91 16.95 203.49 19.36 200.84 21C199.4 19.18 196.94 18.59 194.73 18.7C194.5 18.02 194.15 17.46 193.71 17.01C193.72 12.81 186.59 10.5 184.1 14.41C183.68 11.69 182.56 9.08 180.99 7.22ZM91.8 83.34L91.71 83.79C91.61 83.88 91.51 83.98 91.41 84.08C91.09 84.15 90.78 84.23 90.49 84.31C90.92 83.97 91.35 83.65 91.8 83.34ZM86.29 72.32L86.39 72.46C86.41 72.48 86.42 72.5 86.44 72.52C86.17 72.62 85.9 72.73 85.64 72.84L85.24 73L85.1 73.06C85.49 72.81 85.89 72.56 86.29 72.32ZM150.47 16.88L150.71 16.94C150.78 16.95 150.86 16.97 150.92 16.99C150.95 16.99 150.97 17 150.99 17.01L150.93 16.99C151.04 17.08 151.19 17.18 151.32 17.26C151.19 17.25 151.07 17.24 150.95 17.23C150.79 17.11 150.63 16.99 150.47 16.88Z" fill="#000000" fill-opacity="1.000000" fill-rule="evenodd"/>
		<path id="Vector" d="M127.49 189.41C126.82 188.25 125.28 187.17 123.87 187.34C117.55 188.08 117.56 195.74 120 200.21C122.16 204.17 126.64 206.5 131.12 206.16C135.82 205.8 139.84 203.04 141.6 198.63C142.77 195.72 143.31 190.34 140.2 188.39C140.14 188.35 140.05 188.36 140 188.41C138.51 190.14 138.46 192.74 137.15 194.67C135.94 196.47 134.06 197.95 131.85 198.17C130.2 198.35 128.54 197.75 127.89 196.27C127.54 195.47 127.58 195.04 127.72 194.49L127.83 194.01C128.25 192.33 128.43 191.06 127.49 189.41ZM125.8 155.82C122.5 157.82 117.48 162.49 121.03 167.46C125.2 171.83 131.21 166.81 134.17 164.54C136.91 162.78 140 167.31 137.45 169.36C116.06 185.2 107.38 156.34 124.13 153.46C125.98 153.14 126.66 155.2 125.8 155.82ZM160.59 142.08C158.57 139.05 153.95 139.49 152.84 143.09C152.23 145.05 153.07 146.8 153.02 148.75C152.99 150.39 153.1 152.23 153.6 153.82C154.75 157.45 158.02 160.02 161.88 159.91C165.74 159.81 169.13 157.37 170.75 153.93C172.37 150.48 172.02 146.92 170.84 143.41C170.78 143.24 170.56 143.16 170.43 143.3C169.03 144.79 168.01 146.35 166.95 148.02L165.87 149.72C165.04 151.01 163.83 152.64 162.28 152.54L162.05 152.52C161.62 152.48 161.69 152.57 161.35 151.98C161.2 151.71 161.23 151.21 161.15 150.89L161.13 150.78L161.14 150.72C161.17 150.56 161.21 150.27 161.23 149.77L161.24 149.65C161.35 147.28 162.02 144.23 160.59 142.08ZM109.33 144.1C109.69 140.22 104.24 139.36 102.42 142.23C101.48 143.73 101.2 145.61 100.99 147.39L100.89 148.24C100.68 150.07 100.59 151.97 101.39 153.68C102.64 156.37 105.36 157.79 108.3 157.57C111.1 157.35 113.66 155.73 115.01 153.26C116.21 151.06 117.4 146.75 115.94 144.46C115.85 144.32 115.68 144.3 115.56 144.41C114.18 145.63 113.95 147.87 113.13 149.47C112.29 151.11 111 152.72 109.06 152.97C107.2 153.2 106.49 152.19 106.96 150.41C107.58 148.12 109.1 146.57 109.33 144.1ZM159.12 119.01L158.22 118.66C155.17 117.51 150.97 116.17 148.49 118.66C146.95 120.19 146.66 122.45 147.75 124.32C149.08 126.59 151.46 126.64 153.75 126.98C156.37 127.36 159.02 128.08 161.46 129.11C164.2 130.27 166.74 131.71 169.23 133.33C171.6 134.86 173.96 137.37 176.79 137.84C176.9 137.86 177.04 137.81 177.07 137.68C177.71 134.91 175.92 132.19 174.32 130.02C172.39 127.41 170.05 125.26 167.44 123.33C164.92 121.47 162.03 120.13 159.12 119.01ZM103.59 128.86L103.32 128.81C101.46 128.5 99.78 128.57 98.39 130.04C97.32 131.16 96.91 132.61 97.42 134.09C97.89 135.46 98.94 136.85 100.46 137.14C105.6 138.1 111.29 137.94 116.46 137.21C118.82 136.88 121.2 136.47 123.5 135.82L124.56 135.51C126.48 134.96 128.68 134.39 130.08 132.98C130.58 132.47 130.29 131.74 129.69 131.5C127.26 130.55 123.92 131.06 121.32 130.98C118.3 130.9 115.28 130.67 112.27 130.36C109.33 130.05 106.49 129.39 103.59 128.86Z" fill="#000000" fill-opacity="1.000000" fill-rule="evenodd"/>
		<path id="Vector" d="M86.75 158.47C92.05 163.95 100.89 165.52 107.94 162.58C126.04 155.02 117.18 131.43 103.22 125.1C101.48 124.67 99.15 123.63 97.03 123.4C96.83 123.31 96.42 123.58 95.91 123.32C80.52 125.04 77.02 148.93 86.75 158.47ZM145.12 159.88C151.06 167.76 162.1 170.19 171.13 166.52C188.96 159.5 182.63 138.59 170.44 130.39C144.67 120.7 134.03 145.34 145.12 159.88ZM183.77 142.41C183.78 142.4 183.8 142.4 183.82 142.39C183.72 142.35 183.63 142.31 183.53 142.27C183.56 142.35 183.6 142.43 183.63 142.5C183.67 142.47 183.71 142.44 183.77 142.41ZM74.49 133.89C75.94 133.89 78.04 134.13 79.25 135.14C82.22 125.13 93.18 115.86 102.71 122.62C110.22 125.03 115.79 130.39 118.95 137.5C124.66 134.11 133.64 135.56 138.58 140.05C141.83 129.34 149.8 125.59 159.3 125.03C169.66 123.33 180 133.4 183.22 141.48C185.9 141.17 189.9 140.32 192.43 141.97C208.79 137.68 237.4 135.32 240.73 137.7C243.1 138.61 244.4 144.21 241.09 144.51C238.2 144.1 241.42 140.41 238.51 140C223.02 139.04 207.97 142.17 192.64 143.48C191.27 145.32 186.84 145.93 184.48 145.19C188.2 158.89 180.18 168.22 168.15 171.01C149.54 175.29 133.34 158.63 138.21 141.31C132.57 138.5 126.09 138.62 119.94 140.1C130.21 177.88 69.36 176.19 78.87 136.44C72.54 139.59 71.17 134.53 74.49 133.89Z" fill="#000000" fill-opacity="1.000000" fill-rule="evenodd"/>
	</g>
</svg>
