<svg width="245.000000" height="182.000000" viewBox="0 0 245 182" fill="none" xmlns="http://www.w3.org/2000/svg" xmlns:xlink="http://www.w3.org/1999/xlink">
	<desc>
			Created with Pixso.
	</desc>
	<defs>
		<clipPath id="clip1_61">
			<rect id="IMAGE" rx="0.000000" width="244.000000" height="181.000000" transform="translate(0.500000 0.500000)" fill="white" fill-opacity="0"/>
		</clipPath>
	</defs>
	<g clip-path="url(#clip1_61)">
		<path id="Vector" d="M74.17 115.68C77.36 120.28 79.62 126.04 78.65 131.24C77.71 136.45 73.55 141.09 68.65 144.91C63.76 148.73 58.12 151.66 53.2 150.81C48.28 149.92 44.06 145.19 39.88 140.89C35.72 136.57 31.58 132.67 30.08 127.75C28.61 122.83 29.81 116.86 32.77 111.74C35.71 106.59 40.41 102.3 45.68 101.16C50.98 100.04 56.86 102.06 61.84 104.82C66.85 107.58 70.97 111.08 74.17 115.68Z" fill="#9FD8E5" fill-opacity="1.000000" fill-rule="nonzero"/>
		<path id="Vector" d="M82.11 31.94C87.09 39.13 90.6 48.14 89.08 56.27C87.6 64.42 81.1 71.69 73.45 77.68C65.8 83.67 57.01 88.26 49.31 86.93C41.64 85.56 35.06 78.16 28.56 71.45C22.07 64.69 15.6 58.61 13.28 50.9C11 43.22 12.88 33.86 17.5 25.86C22.1 17.79 29.44 11.07 37.68 9.28C45.96 7.51 55.12 10.67 62.89 14.97C70.71 19.29 77.13 24.75 82.11 31.94Z" fill="#9093D1" fill-opacity="1.000000" fill-rule="nonzero"/>
		<path id="Vector" d="M128.07 123.14C129.67 125.44 130.8 128.32 130.31 130.91C129.84 133.52 127.76 135.84 125.31 137.75C122.87 139.66 120.05 141.13 117.59 140.7C115.13 140.26 113.02 137.89 110.93 135.74C108.85 133.58 106.78 131.63 106.03 129.17C105.3 126.71 105.89 123.72 107.37 121.17C108.84 118.59 111.19 116.45 113.83 115.88C116.48 115.32 119.42 116.33 121.91 117.71C124.41 119.09 126.47 120.84 128.07 123.14Z" fill="#9093D1" fill-opacity="1.000000" fill-rule="nonzero"/>
		<path id="Vector" d="M159.34 16.49C161.91 20.19 163.73 24.84 162.95 29.03C162.19 33.23 158.84 36.97 154.89 40.05C150.95 43.13 146.4 45.49 142.43 44.8C138.47 44.09 135.07 40.27 131.7 36.81C128.35 33.33 125.01 30.19 123.8 26.21C122.62 22.25 123.58 17.44 125.97 13.31C128.34 9.16 132.13 5.7 136.38 4.79C140.65 3.88 145.38 5.51 149.4 7.73C153.44 9.96 156.76 12.78 159.34 16.49Z" fill="#9093D1" fill-opacity="1.000000" fill-rule="nonzero"/>
		<path id="Vector" d="M143.23 68.16C146.42 72.76 148.68 78.52 147.71 83.72C146.77 88.93 142.61 93.57 137.71 97.39C132.82 101.21 127.18 104.14 122.26 103.29C117.34 102.4 113.12 97.67 108.94 93.37C104.78 89.05 100.64 85.16 99.14 80.23C97.67 75.31 98.87 69.34 101.83 64.22C104.77 59.07 109.47 54.78 114.74 53.64C120.04 52.52 125.92 54.54 130.9 57.3C135.91 60.06 140.03 63.56 143.23 68.16Z" fill="#F7859C" fill-opacity="1.000000" fill-rule="nonzero"/>
		<path id="Vector" d="M225.76 116.82C230.74 124.01 234.25 133.02 232.73 141.15C231.25 149.3 224.75 156.57 217.1 162.56C209.45 168.54 200.66 173.14 192.96 171.81C185.29 170.44 178.71 163.04 172.21 156.33C165.72 149.57 159.25 143.49 156.93 135.78C154.65 128.09 156.53 118.74 161.15 110.74C165.75 102.67 173.1 95.95 181.33 94.16C189.61 92.39 198.77 95.55 206.54 99.85C214.36 104.16 220.78 109.62 225.76 116.82Z" fill="#FFDBB4" fill-opacity="1.000000" fill-rule="nonzero"/>
	</g>
</svg>
