<svg width="245.000000" height="251.000000" viewBox="0 0 245 251" fill="none" xmlns="http://www.w3.org/2000/svg" xmlns:xlink="http://www.w3.org/1999/xlink">
	<desc>
			Created with Pixso.
	</desc>
	<defs>
		<clipPath id="clip1_79">
			<rect id="IMAGE" rx="0.000000" width="244.000000" height="250.000000" transform="translate(0.500000 0.500000)" fill="white" fill-opacity="0"/>
		</clipPath>
	</defs>
	<g clip-path="url(#clip1_79)">
		<path id="Vector" d="M163.53 104.95C163.37 102.3 163.86 99.41 165.53 97.53C167.18 95.65 170.01 94.78 172.92 94.42C175.84 94.06 178.84 94.25 180.62 95.8C182.4 97.36 182.95 100.32 183.59 103.08C184.21 105.86 184.94 108.45 184.34 110.82C183.73 113.18 181.78 115.31 179.33 116.67C176.88 118.05 173.93 118.64 171.51 117.81C169.09 116.97 167.21 114.72 165.87 112.38C164.51 110.03 163.7 107.6 163.53 104.95Z" fill="#9093D1" fill-opacity="1.000000" fill-rule="nonzero"/>
		<path id="Vector" d="M47.26 142.5C46.93 137.2 47.92 131.41 51.25 127.66C54.56 123.89 60.21 122.15 66.04 121.44C71.87 120.72 77.87 121.09 81.44 124.2C84.99 127.32 86.09 133.23 87.37 138.76C88.62 144.31 90.07 149.5 88.87 154.24C87.65 158.95 83.76 163.22 78.86 165.93C73.96 168.68 68.05 169.87 63.22 168.22C58.38 166.54 54.61 162.03 51.93 157.35C49.22 152.66 47.6 147.8 47.26 142.5Z" fill="#F7859C" fill-opacity="1.000000" fill-rule="nonzero"/>
		<path id="Vector" d="M114 208.35C113.66 203.05 114.66 197.26 117.98 193.51C121.29 189.74 126.94 188 132.77 187.29C138.61 186.58 144.6 186.95 148.17 190.05C151.72 193.17 152.82 199.08 154.1 204.61C155.35 210.16 156.81 215.36 155.6 220.09C154.38 224.8 150.49 229.08 145.59 231.79C140.69 234.54 134.78 235.73 129.96 234.07C125.11 232.4 121.35 227.88 118.66 223.2C115.96 218.51 114.33 213.65 114 208.35Z" fill="#F7859C" fill-opacity="1.000000" fill-rule="nonzero"/>
		<path id="Vector" d="M81.34 62.34C80.83 54.06 82.4 45.02 87.61 39.15C92.79 33.25 101.62 30.52 110.75 29.39C119.87 28.27 129.24 28.83 134.82 33.67C140.36 38.54 142.06 47.76 144.05 56.4C145.99 65.06 148.25 73.17 146.36 80.57C144.44 87.93 138.34 94.61 130.68 98.86C123.01 103.17 113.77 105.04 106.23 102.47C98.66 99.86 92.78 92.82 88.59 85.52C84.38 78.19 81.85 70.62 81.34 62.34Z" fill="#9FD8E5" fill-opacity="1.000000" fill-rule="nonzero"/>
		<path id="Vector" d="M111.14 142.5C110.8 137.2 111.79 131.41 115.12 127.66C118.43 123.89 124.08 122.15 129.91 121.44C135.75 120.72 141.74 121.1 145.31 124.2C148.86 127.32 149.96 133.23 151.24 138.76C152.49 144.31 153.94 149.5 152.74 154.24C151.52 158.95 147.63 163.22 142.73 165.93C137.83 168.68 131.92 169.87 127.1 168.22C122.25 166.54 118.48 162.03 115.8 157.35C113.1 152.66 111.47 147.8 111.14 142.5Z" fill="#FFDBB4" fill-opacity="1.000000" fill-rule="nonzero"/>
	</g>
</svg>
