<svg width="185.116821" height="423.212891" viewBox="0 0 185.117 423.213" fill="none" xmlns="http://www.w3.org/2000/svg" xmlns:xlink="http://www.w3.org/1999/xlink">
	<desc>
			Created with Pixso.
	</desc>
	<defs/>
	<path id="Skin" d="M151.52 143.78L151.73 146.23L151.88 145.94C151.9 150.9 152.63 155.9 153.44 160.85C155.56 159.11 157.29 157.57 156.79 154.6C155.52 150.37 153.89 146.24 152.57 142.03L152.35 143.13L151.48 143.31L151.52 143.78ZM0.58 404.74C0.97 403.02 1.4 401.19 1.79 399.47C1.83 399.32 2.2 399.29 2.31 399.25C4.42 394.09 6.26 392.92 10.33 392.21C16.9 391.02 23.39 388.44 29.6 384.62C29.45 384.05 29.05 383.07 28.69 382.02C28.74 382.04 28.79 382.05 28.84 382.06C28.92 382.08 29 382.08 29.07 382.07C29.49 383.06 29.95 383.93 30.2 384.25C30.97 383.75 31.83 383.2 32.59 382.67L32.59 382.66C33.27 382.19 34.1 381.61 34.76 381.25C34.89 380.56 35.89 380.35 36.42 379.9C37.43 379.17 38 378.79 38.93 379.72C40.95 377.1 42.57 374.33 44.17 370.75C45.16 368.66 45.66 366.34 47 364.47C46.97 364.46 46.12 364.19 46.1 364.17C61.35 330.34 63.79 292.69 67.05 256.53C67.77 248.44 68.52 240.28 69.92 232.43C70.11 231.24 70.28 230.07 71 229.12C62.42 222.05 62.34 208.34 66.49 198.18C56.95 172.39 75.66 145.01 74.28 118.7C73.5 100.85 76.71 80.17 96.85 75.88C99.35 74.45 102.34 74.23 104.72 74.19C106.87 73.11 107.21 70.71 107.97 68.74L108.72 68.75C108.94 67.85 109.15 66.88 109.34 65.98C109.63 65.41 109.46 64.67 110.35 64.83C112.37 61.89 128.56 60.42 128.74 65.14C129.32 65.49 129.44 66.16 129.57 66.98C130.47 72.77 136.65 77.39 142.23 76.46L142.32 76.38C166.03 75.5 175.37 92.39 180 115.42C183.62 133.3 185.93 152.69 183.09 170.6C180.32 178.72 171.93 182.63 165.44 187.63C166.19 189.52 166.26 191.6 166.28 193.65C166.36 196.01 166.54 198.38 166.74 200.71C167.17 203.66 167.86 208.74 163.85 209.08C162.3 244.33 159.05 279.48 164.01 314.83C168.13 334.37 166.55 358.03 161.46 377.15C161.17 378.1 160.42 378.95 159.45 378.65C158.96 378.96 158.58 379.16 158.18 378.86C157.94 379.31 157.68 379.73 157.39 380.14C157.29 385.4 156.69 390.55 156.96 395.84C157.37 395.79 158.26 395.35 158.6 395.64L158.65 396.04L158.98 396.16C159.67 398.1 160.1 400.14 160.42 401.79C161.81 404.61 163.59 409.6 162.6 412.74C162.65 412.8 162.91 413.11 162.96 413.16C163.19 413.29 163.24 413.47 163.29 413.68C163.97 413.93 164.04 414.71 164.11 415.5C164.45 417.41 163.94 419.16 163.77 421.03L163.76 421.02C163.76 421.02 163.19 421.67 163.19 421.68C156.06 422.11 149.04 422.22 141.94 422.48C141.41 421.45 141.25 420.06 140.85 418.93C132.43 425.1 117.85 422.74 107.28 421.22C102.99 420.61 98.93 420.02 95.34 419.83C95.1 419.79 95.09 419.69 95.08 419.6C95.04 418.19 94.78 416.74 94.91 415.37C94.17 414.65 94.51 413.33 95.02 412.18C96.89 408.11 101.99 407.66 106.13 406.97C113.9 405.46 120.15 402.62 125.2 398.28C124.86 397.97 124.56 397.67 124.27 397.37C124.38 397.3 124.49 397.22 124.6 397.15C124.87 397.03 125.12 396.91 125.36 396.76C125.48 396.83 125.63 396.84 125.77 396.76C126.28 396.47 126.69 396.05 127.18 395.73C127.27 395.87 127.37 396.01 127.47 396.16C127.93 395.67 128.45 395.12 128.91 394.6C128.93 394.46 128.89 394.11 129.06 394.07C130.36 394.2 131.87 394.64 133.23 395.13C134.77 390.07 135.66 384.59 135.56 379.41C134.05 379.41 132.72 379.4 131.59 378.68C131.28 378.76 130.86 378.94 130.78 378.45C130.32 376.47 130.2 374.37 130.08 372.34C127.74 333.96 124.17 303.11 112.33 270.6C111.19 275.11 109.29 279.81 107.55 284.3C99.65 303.09 93.95 323.34 89.07 343.06C87.15 350.44 85.06 358.55 83 365.85C82.2 369.36 80.58 370.65 77.17 370.62C74.55 370.74 71.92 370.7 69.28 370.52C65.69 373.8 64.22 378.22 63.17 382.21C64.04 382.86 65.43 382.61 66.45 382.83C67.33 384.25 67.03 386.24 67.01 387.99C66.87 390.27 66.99 392.72 66.32 394.87C66.2 397.23 66.19 399.81 66.01 402.54C67.96 403.67 67.6 406.17 66.96 408.56C66.67 409.17 56.2 409.05 53.6 409.02C50.55 408.85 46.2 409.63 45.2 406.28C37.94 410.32 26.89 408.95 18.42 407.76C12.28 407.02 6.72 406.32 0.69 405.05C0.63 405.02 0.54 404.83 0.58 404.74Z" fill="#D08B5B" fill-opacity="1.000000" fill-rule="evenodd"/>
	<path id="Pants" d="M162.17 205.31C160.33 205.12 141.56 206.58 139.69 206.14L139.6 206.12L138.87 205.95L138.45 206.57C136.36 209.63 135.3 211.64 134.78 213.68L134.74 213.83L134.72 213.89C134.28 215.73 134.25 217.43 134.49 220.89L134.51 221.24L134.54 221.62L134.61 222.51L134.6 222.52C134.49 222.89 134.13 223 133.67 222.75L133.64 222.73L133.63 222.72L133.58 222.69C132.62 222.01 131.97 221.12 131.54 219.94L131.51 219.86L131.48 219.77C131.13 218.76 130.95 217.68 130.8 215.94L130.77 215.62L130.69 214.55C130.56 213.06 130.47 212.26 130.3 211.41L130.28 211.3L129.8 209.04L128.36 210.72C127.64 211.57 127.21 212.72 126.93 214.23L126.9 214.41C126.75 215.28 126.67 216.14 126.58 217.54L126.55 217.94L126.48 219.26L126.45 219.74C126.33 221.52 126.21 222.45 125.97 223.33L125.95 223.42L125.93 223.48C125.62 224.55 125.2 225.09 124.59 225.26L124.55 225.27L124.54 225.27L124.52 225.27C123.82 225.22 123.65 224.89 123.69 223.76L123.7 223.65L123.7 223.6L123.71 223.47L123.73 223.25L123.72 223.11C123.67 222.58 123.58 222.13 123.37 221.38L123.35 221.3L123.15 220.58L123.1 220.4C122.6 218.45 122.49 216.3 122.77 214.11L122.79 213.96L123.51 208.59L120.77 213.27C118.96 216.36 117.88 219.89 117.6 223.57L117.58 223.74L117.57 223.87C117.44 224.12 117.17 224.18 116.94 224.01L116.92 223.99L116.9 223.97C116.31 223.44 115.95 222.47 115.61 220.77L115.59 220.68L115.46 219.99L115.4 219.67L115.37 219.52C114.72 216.73 114.59 214.51 115.07 212.51L115.1 212.41L115.97 208.93L113.31 211.33C112.89 211.71 112.45 212.08 112.01 212.44C111.18 213.11 110.51 213.19 110.13 212.89C109.71 212.58 109.52 211.81 109.79 210.78L109.81 210.72L110.28 208.99L108.52 209.37C102.6 210.66 97.17 211.29 92.11 211.15C86.29 210.98 81.11 209.79 76.62 207.42L76.48 207.35L75.19 206.66L74.89 208.09C74.47 210.17 74.57 212.3 75.13 214.64L75.17 214.8C75.56 216.39 76.07 217.83 77.01 220.16L77.11 220.4L77.56 221.5L77.89 222.32L78.05 222.71C78.53 223.93 78.68 224.83 78.57 225.37C78.52 225.65 78.43 225.75 78.21 225.8C77.4 225.98 75.8 225.32 74.34 224.07L74.28 224.01L72.78 222.69L72.29 225.01L72.4 225.31C72.68 226.04 72.78 226.72 72.66 227.27L72.65 227.33L72.54 227.8L72.81 228.2C72.84 228.23 72.83 228.27 72.78 228.35C72.71 228.46 72.6 228.53 72.52 228.54L72.5 228.54L71.56 228.51L71.39 229.43L71.3 229.95C70.83 232.59 69.73 243.05 68.01 261.31C67.45 268.47 60.75 316.44 59.49 322.56C56.65 337.32 53.25 350.12 48.84 361.98L48.7 362.34L48.34 363.31L49.28 363.72C57.92 367.54 67.84 369.27 77.87 368.86L78.15 368.84L78.26 368.84C80.47 368.81 81.58 367.87 82.14 365.73L82.18 365.6L82.19 365.53L82.21 365.45L82.58 364.2C83.75 360.21 97.03 311.09 99.19 304.27L99.33 303.82L99.59 303.01L99.82 302.3C102.84 292.99 106.02 284.78 109.64 277.15L109.77 276.89L109.79 276.84C110.2 276.1 110.53 275.32 110.89 274.27L110.93 274.16L111.01 273.93L111.07 273.76L111.42 272.71L111.54 272.35L111.59 272.18C112.02 270.74 112.25 269.37 112.27 268.02L112.27 267.88L112.27 267.86L112.34 268.01C113.76 271.24 115.37 275.5 117.03 280.56L117.1 280.76L117.31 281.41C121.84 295.45 125.07 310.48 127.42 327.42L127.55 328.35C129.3 341.21 130.46 354 131.71 372.6L131.83 374.34L131.97 376.41L132.81 376.56C133.77 376.73 134.6 376.96 135.34 377.27L135.44 377.31L135.62 377.39L135.8 377.4L138.27 377.58C138.47 377.59 138.66 377.6 138.83 377.61L139.36 377.64C146.65 378.12 152.72 377.77 158.35 376.29L158.52 376.24L158.73 376.19L160.78 375.68L166.63 342.24L163 310.89L162.87 309.95C160.72 294.18 163.24 223.02 163.41 218.32L163.44 217.32L163.48 216.35L163.52 215.64L163.68 212.87L163.71 212.46C163.86 210.09 164.05 208.48 164.38 206.89L164.65 205.67L163.51 205.49C163.07 205.42 162.62 205.36 162.17 205.31Z" fill="#E86BBB" fill-opacity="1.000000" fill-rule="nonzero"/>
	<path id="Shoes" d="M96.45 414.24C95.6 415.22 95.31 416.77 95.57 418.89C95.65 418.92 116.07 422.52 129.87 422.38C135.49 422.33 139.42 418.46 141.35 418.46C141.93 418.46 141.63 422.16 143.82 421.8L163.89 420.91L164.31 414.24L162.27 412.06C152.53 414 145.17 414.72 140.19 414.24C131.34 413.37 98.34 412.06 96.45 414.24ZM3.01 399.4C2.03 400.22 1.43 401.7 1.2 403.85C12.27 406.39 19.66 407.7 23.39 407.78L24.47 407.8L25.71 407.82C27.31 407.84 37.88 409.29 44.71 406.09C45.98 405.5 48.25 408.22 50.26 408.23C54.87 408.25 60.48 408.12 67.09 407.84C67.12 407.38 67.5 405.1 67.54 404.39C66.69 402.68 66.25 401.35 66.22 400.42C66.16 398.54 53.99 400.59 40.5 400.42C23.6 400.21 4.49 398.17 3.01 399.4Z" fill="#FFFFFF" fill-opacity="1.000000" fill-rule="evenodd"/>
	<path id="Ink" d="M128.84 63.94C128.37 63.84 127.97 63.98 127.68 64.24C127.62 64.87 127.63 65.51 127.68 66.14C127.73 66.19 127.79 66.23 127.85 66.27L127.8 66.24C127.76 66.21 127.73 66.19 127.71 66.18C128.33 70.31 131.2 73.82 134.91 75.69C135.14 76.07 135.66 76.05 136.03 76.22L136.56 76.38C138 76.84 139.47 77.27 141 77.29C137.11 88.23 121.91 94.16 111.16 94.97C101.87 95.46 96.72 87.75 99.17 79.1C104.55 78.41 109.84 72.68 107.89 67.14L107.83 66.97C107.81 66.92 107.74 66.94 107.73 66.99C107.67 67.55 107.34 68.17 107.19 68.72L107.12 68.92C106.6 70.41 106.14 72.19 104.68 72.99L104.43 72.99C101.8 73.06 99.06 73.41 96.74 74.71C94.16 75.22 91.69 76.24 89.4 77.51C71.26 87.37 74.16 108.34 73.6 125.81C71.84 149.74 57.27 173.66 65.86 197.68C61.94 207.69 61.64 221.14 70.2 228.77C70.1 228.92 70.02 229.08 69.96 229.25C69.55 230.27 69.42 231.43 69.23 232.51L69.21 232.64C68.75 235.15 68.41 237.69 68.09 240.22C67.45 245.22 66.98 250.24 66.53 255.26L66.47 255.98C65.36 268.6 64.39 281.25 62.93 293.84L62.66 295.7C60.68 309.18 58.53 322.69 55.29 335.89C55.19 336.24 55.1 336.6 55 336.95C53.83 341.19 52.46 345.35 51.17 349.55C50.76 350.88 50.3 352.19 49.83 353.49L49.23 354.96C49.13 355.21 49.03 355.45 48.93 355.7C47.88 358.29 46.76 360.86 45.58 363.39C45.37 363.85 45.68 364.27 46.04 364.39C44.96 366.1 44.56 368.14 43.66 369.96C42.37 372.86 40.84 375.68 38.94 378.22C37.88 377.43 36.71 378.45 35.83 379.04C35.27 379.39 34.54 379.65 34.32 380.27C33.89 380.52 33.48 380.78 33.09 381.05L33.05 380.93C32.57 379.41 31.65 377.36 30.14 376.68C28.37 375.94 26.96 377.42 27.49 379.19C27.82 380.78 28.32 382.29 28.86 383.82C23.43 387.1 17.49 389.59 11.25 390.84L11.03 390.88C9.53 391.18 7.99 391.39 6.61 392.11C4.32 393.37 2.85 395.76 1.92 398.15C1.6 398.23 1.3 398.51 1.23 398.82L0.62 401.45C0.42 402.33 0.22 403.21 0.02 404.09C-0.09 404.57 0.17 405.17 0.69 405.28C4.32 406 7.96 406.64 11.62 407.18C22.01 408.14 35.37 411.52 45.01 406.77C46.55 409.94 50.84 409.03 53.75 409.27C55.51 409.14 67.91 409.82 67.79 408.32L67.86 408.06C68.41 405.96 68.9 403.15 66.91 401.7C67.03 399.34 67.12 396.97 67.16 394.61C67.86 392.36 67.74 389.88 67.88 387.53C67.86 385.78 68.27 383.77 67.31 382.2C67.23 381.17 64.93 381.72 64.17 381.34L64.24 381.09C65.29 377.28 66.75 373.57 69.7 370.78C72.25 370.95 74.8 370.98 77.35 370.86C81.24 370.88 83.01 369.19 83.86 365.53C84.46 363.38 85.06 361.23 85.64 359.08C90.18 342.13 94.31 325.03 99.34 308.22C101.26 302.58 103.38 297.01 105.52 291.46C106.98 287.7 108.43 283.94 109.88 280.17C110.63 278.24 111.37 276.29 112.01 274.33C112.21 273.72 112.39 273.11 112.57 272.5C123.83 303.85 127.41 337.16 129.4 370.24C129.59 372.88 129.62 375.55 130.21 378.13C130.4 378.93 131.07 379.15 131.66 378.97C132.75 379.55 133.56 379.62 134.97 379.64L134.96 380.1C134.88 383.35 134.68 386.59 133.94 389.76C133.65 391.09 133.13 392.38 132.84 393.7C131.7 393.31 130.53 393.01 129.32 392.87C128.72 392.8 128.37 393.31 128.34 393.83C128.12 394.07 127.9 394.32 127.67 394.56L127.55 394.41C126.47 393.02 125.08 391.1 123.21 390.94C122.35 390.89 121.57 391.37 121.39 392.24C121.21 394.24 122.86 396.43 124.26 397.76C119.09 402.04 112.68 404.51 106.14 405.77L105.88 405.82C101.68 406.5 96.51 407.05 94.51 411.39L94.46 411.49C93.99 412.54 93.55 414.15 94.31 415.12C94.22 416.45 94.47 417.81 94.5 419.15C94.53 419.69 94.9 420.01 95.42 420.07C108.77 420.79 129.13 427.04 140.56 419.6C140.8 420.42 141.04 421.25 141.27 422.07C141.37 422.44 141.73 422.74 142.12 422.72C149.2 422.47 156.3 422.35 163.37 421.92C163.58 421.92 163.75 421.83 163.89 421.67C164.06 421.87 164.48 421.81 164.54 421.52C164.64 421.02 164.64 420.5 164.69 419.99C164.74 419.39 164.9 418.84 164.99 418.26C165.16 417.18 165.09 416.02 164.98 414.94L164.95 414.67C164.88 413.96 164.74 413.15 164.1 412.74L164.06 412.72C164.05 412.71 164.05 412.71 164.05 412.71C163.98 412.48 163.81 412.29 163.6 412.13L163.58 412.12C163.92 411.31 163.79 410.29 163.69 409.46C163.42 406.54 162.6 403.65 161.26 401.06C160.88 399.09 160.41 397.05 159.72 395.18C159.74 395.09 159.63 395.02 159.55 395.06C159.52 395.04 159.49 395.03 159.46 395.02C159.46 394.99 159.46 394.96 159.45 394.94C159.33 394.58 158.96 394.39 158.61 394.34C158.32 394.29 158.07 394.37 157.8 394.43C157.61 389.34 158.22 384.26 158.28 379.17C158.76 379.4 159.3 379.19 159.75 378.92C161.04 379.12 161.96 378.02 162.31 376.86L162.52 375.92C164.39 367.45 166.07 358.9 166.97 350.26C168.22 338.21 166.71 326.15 164.88 314.23C159.9 282.87 163.51 251.16 163.86 219.62C164.16 216.17 164.28 212.69 164.66 209.25C166.06 209.08 167.12 207.77 167.59 206.51C168.34 204.52 167.8 202.21 167.61 200.16C167.41 197.89 167.25 195.61 167.15 193.33L167.14 192.67C167.11 190.89 167.03 189.1 166.44 187.41C172.73 182.56 181.06 178.76 183.72 170.66C184.93 169.57 184.69 164.52 184.89 162.66C185.69 146.61 184.33 130.46 180.86 114.78C176.52 93.4 167.63 74.25 142.72 75.16C142.74 75.15 142.76 75.13 142.78 75.11C142.52 75.03 142.25 75.11 142.05 75.29C137.81 75.83 133.76 73.32 131.64 69.72C131.12 68.82 130.73 67.88 130.53 66.86L130.51 66.78C130.3 65.66 130.23 64.22 128.84 63.94ZM161.02 413.01C161.62 413.35 162.28 413.39 162.83 413.83C163.22 415.96 163.19 418.18 162.72 420.29C156.08 420.36 149.43 420.7 142.8 420.93C142.53 419.9 142.28 418.87 142 417.84L141.99 417.82L141.98 417.78C141.29 417.8 140.6 417.82 139.91 417.84C129.71 425.15 108.59 418.94 96.29 418.33L96.16 416.28C96.28 416.36 96.41 416.41 96.53 416.43C96.41 416.13 96.62 415.74 97.02 415.85C97.68 416.04 98.33 416.21 98.99 416.37C99.04 416.35 99.1 416.34 99.17 416.34C104.94 416.84 110.74 416.79 116.54 416.81C122.31 416.82 128.08 417.07 133.85 417.05C136.2 417.04 138.56 417.01 140.91 416.94C147.69 415.68 154.42 414.19 161.02 413.01ZM2.77 400.52C3.06 400.72 3.43 400.74 3.83 400.8L3.89 400.81C4.25 400.86 4.61 400.91 4.98 400.94C5.88 401.52 7.68 401.44 8.55 401.61C27.65 403.52 46.88 401.25 65.99 402.78C66.9 404.09 66.68 405.7 66.2 407.16C60.86 407.36 55.52 407.47 50.17 407.23L49.75 407.22C49.09 407.19 48.41 407.15 47.8 406.9C47.26 406.67 46.59 406.12 46.67 405.46L46.68 405.42C46.81 404.66 46.01 403.77 45.24 404.31C37.93 409.16 28.01 406.73 19.78 406.25C13.85 405.62 7.95 404.73 2.1 403.59C2.32 402.57 2.55 401.54 2.77 400.52ZM136.18 379.03C136.79 379.1 137.4 379.16 138.02 379.22C140.48 379.44 142.95 379.55 145.42 379.62L146.58 379.66C148.88 379.72 151.2 379.77 153.5 379.65C154.66 379.58 155.85 379.45 156.98 379.13C155.99 384.32 155.48 389.61 155.49 394.89C155.19 395.16 155.25 395.6 155.33 395.94L155.25 396.17C155.07 396.71 154.9 397.26 154.83 397.81C147.7 402.05 141.77 397.7 135.27 394.66C136.34 391.86 136.66 388.8 136.84 385.84C136.94 383.53 136.77 381.28 136.18 379.03ZM123.21 392.74C123.51 392.78 123.78 392.96 124.02 393.13C125.01 393.84 125.87 394.68 126.65 395.59C126.35 395.89 126.05 396.18 125.73 396.47C124.56 395.52 123.64 394.2 123.21 392.74ZM47.36 365.75L48.33 366.07C54.29 368.08 60.38 369.96 66.72 370.52C66.38 370.85 66.09 371.25 65.84 371.68C65.62 371.87 65.4 372.1 65.46 372.39C65.26 372.8 65.08 373.22 64.91 373.61C63.9 376 62.75 378.34 61.9 380.8C61.66 381.82 60.69 383.26 61.14 384.25C54.41 387.19 46.03 385.88 40.88 380.51L41.06 380.24C44.02 375.86 46.62 371.04 47.36 365.75ZM29.09 378.14C29.5 377.79 30.22 378.76 30.4 379C31.07 379.9 31.53 380.87 31.88 381.9C31.45 382.19 31.01 382.47 30.57 382.76L30.55 382.72C30.14 382.01 28.67 378.59 29.09 378.14ZM157.19 378.06L157.18 378.1C156.82 378.16 156.46 378.21 156.09 378.25C155.21 378.35 154.31 378.39 153.42 378.41C154.67 378.23 155.93 378.08 157.19 378.06ZM147.61 207.37L147.91 207.34L148.29 207.3C153.19 206.69 158.13 205.87 163.07 206.66C162.39 209.83 162.34 213.15 162.12 216.39C161.07 247.62 157.27 279.03 161.52 310.19L161.65 311.14C163.2 322.22 165.05 333.34 164.3 344.57C163.73 354.81 161.64 364.87 159.58 374.88C159.08 375.01 158.58 375.13 158.09 375.26C158.07 375.12 157.98 375.2 157.97 375.29C151.84 376.92 145.45 377.06 139.16 376.65C137.98 376.58 136.8 376.49 135.61 376.41C134.7 376.01 133.72 375.75 132.73 375.58C130.64 343.79 127.9 311.65 118.08 281.17C111.83 261.81 104.02 242.96 99.39 223.11C99.24 222.55 98.39 222.78 98.53 223.35L98.67 224.11C99.85 230.33 100.9 236.56 102.73 242.64C101.34 241.13 99.76 239.79 98.45 238.21C98.04 237.71 97.67 237.19 97.35 236.63C97.04 235.93 96.55 235.39 95.79 235.23C95.44 235.09 95.12 235.38 95 235.68C94.68 236.48 94.82 237.06 95.28 237.77L95.4 237.95C97.45 240.99 100.74 242.76 103.46 245.15C105.73 252.74 108.34 260.22 110.91 267.72C110.94 269.21 110.67 270.68 110.23 272.1C109.74 273.57 109.29 275.11 108.53 276.49C97.93 298.66 92.59 322.83 86.15 346.43C84.45 352.72 82.74 359.02 80.89 365.27L80.86 365.38C80.44 367.14 79.78 367.85 77.85 367.85C68.19 368.29 58.26 366.71 49.46 362.82C54.31 349.86 57.67 336.45 60.29 322.86C61.61 316.44 62.68 309.96 63.59 303.46C64.84 295.16 65.95 286.85 67.07 278.57C69.37 262.35 69.27 245.84 72.2 229.72C73.19 229.75 74.05 228.56 73.44 227.68C73.66 226.79 73.47 225.83 73.15 225.01L73.19 224.84C76.62 227.89 81.09 228.27 78.8 222.41L78.64 222.01C76.91 217.71 74.72 213.12 75.69 208.4C85.64 213.72 97.8 212.86 108.49 210.53C107.65 213.56 109.9 215.42 112.43 213.38C112.88 213.01 113.33 212.63 113.77 212.24C113.13 214.79 113.47 217.47 114.07 220L114.12 220.29C114.41 221.81 114.74 223.82 115.9 224.87C116.74 225.64 118 225.31 118.38 224.22C118.59 220.61 119.6 217.05 121.44 213.91C121.13 216.21 121.21 218.57 121.77 220.77C121.99 221.61 122.3 222.47 122.37 223.34L122.36 223.49C122.25 225.02 122.45 226.43 124.36 226.46C128.9 225.66 126.04 214.92 128.92 211.52C129.8 215.62 128.78 221.01 132.77 223.73C133.87 224.42 135.21 224.02 135.44 222.68L135.36 221.63C134.88 215.22 134.97 213.29 139.08 207.28C141.87 207.94 144.79 207.66 147.61 207.37ZM66.84 372.29C66.83 372.32 66.83 372.34 66.83 372.37C66.78 372.41 66.74 372.46 66.69 372.51L66.62 372.59L66.7 372.39C66.74 372.36 66.79 372.33 66.84 372.29ZM70.58 229.1L70.77 229.26C70.8 229.29 70.83 229.31 70.86 229.34C70.69 230.08 70.54 230.82 70.39 231.56L70.42 231.07C70.44 230.59 70.37 229.72 70.58 229.1ZM73.61 163.32C75.01 156.79 76.41 154.03 74.63 163.44L74.44 164.46C73.67 168.54 72.86 173.16 72.1 178.13L71.94 179.17C71.14 184.33 69.89 191.88 69.8 197.92C69.7 204.78 73.18 206.82 74.55 207.71C74.81 208.46 74.48 209.09 74.26 209.82C73.97 210.98 73.9 212.1 73.98 213.3C74.27 217.38 76.45 221.06 77.44 224.93C76.17 224.58 74.75 223.44 73.65 222.53C71.68 220.97 70.31 218.64 69.71 216.18C69.43 215.02 69.64 213.59 68.85 212.63C68.61 212.35 68.11 212.38 67.87 212.63C67.23 213.32 67.29 214.16 67.39 215.04C67.75 218.04 69.06 220.97 71.18 223.13C71.28 224.23 71.61 225.22 71.83 226.27C71.74 226.51 71.66 226.74 71.58 226.98C70.14 225.74 68.94 224.24 68.01 222.58C63.87 215.29 65.31 206.89 66.39 198.94C66.6 199.47 67.1 199.68 67.57 199.63C67.85 200.32 68.56 199.88 68.59 198.99C68.77 193.45 69.51 185.57 70.86 177.49C71.67 172.68 72.64 167.81 73.61 163.32ZM126 188.49C128.05 194.89 136.16 196.13 140.9 200.03C138.52 206.32 131.86 213.05 133.82 221.15L133.83 221.21C133.89 221.52 134.08 222.4 133.88 222.56C133.74 222.67 132.93 221.87 132.79 221.72C129.94 218.32 131.6 213.52 129.99 209.65C129.78 209.13 129.13 208.83 128.68 209.3C126.68 211.43 126.19 214.29 125.89 217.1L125.88 217.19C125.63 219.37 125.76 221.61 125.12 223.73L125.1 223.81C124.96 224.22 124.7 224.79 124.42 224.9C123.63 225.18 123.92 223.92 123.9 223.42C123.81 221.97 123.2 220.62 122.99 219.19C122.53 216.14 122.98 212.93 124 210.04C124.32 209.12 123.05 208.79 122.57 209.43C120.54 212.1 118.91 215.06 117.84 218.24C117.41 219.52 117.18 220.82 116.89 222.12C115.1 216.67 115.15 210.93 119.22 206.46C120.18 205.31 118.58 203.64 117.54 204.78C116.46 206.07 115.41 207.36 114.24 208.56C113.09 209.72 111.98 211.15 110.56 211.98C110.79 206.76 116.39 204.4 119.37 200.83C122.41 197.23 124.08 192.74 126 188.49ZM152.89 144.4C153.98 147.71 155.26 150.97 156.24 154.33C156.45 156.59 155.75 157.53 154.08 158.98C153.36 154.86 153.07 150.69 152.68 146.53C152.74 145.82 152.75 145.1 152.89 144.4ZM152.35 142.77L152.46 143.1L152.42 143.17L152.39 143.23L152.35 142.77ZM85.94 101.25L85.52 104C83.99 114.07 82.41 124.14 80.24 134.09C80.12 134.64 79.42 133.91 79.55 132.84C80.88 121.92 85.92 101.12 85.94 101.24L85.94 101.25ZM98.78 79.17C98.68 79.28 98.59 79.4 98.5 79.53C98.52 79.42 98.54 79.31 98.56 79.19C98.63 79.18 98.71 79.18 98.78 79.17Z" fill="#000000" fill-opacity="1.000000" fill-rule="evenodd"/>
	<path id="Skin" d="M116.42 12.97C108.19 12.97 99.67 19.37 96.65 23.46C93.16 28.18 90.41 50.86 91.7 58.55C92.99 66.25 99.41 74.63 110.55 74.63C121.68 74.63 128.46 73.26 128.73 71.26C128.91 69.93 131.36 65.55 136.08 58.14C140.9 56.78 143.32 54.47 143.34 51.22C143.36 47.97 142.07 45.75 139.46 44.57C140.39 31.74 139.69 23.66 137.35 20.32C133.84 15.31 124.66 12.97 116.42 12.97Z" fill="#D08B5B" fill-opacity="1.000000" fill-rule="evenodd"/>
	<path id="Ink" d="M121.97 0.55C120.87 -0.76 118.91 0.48 118.96 1.91C118.52 2.03 117.99 2.44 117.79 2.98C117.36 2.95 116.92 3.04 116.52 3.26L116.44 3.16C115.07 1.48 113.26 0.04 111.39 1.28C110.88 1.62 110.65 2.17 110.76 2.77L110.77 2.82L110.73 2.63C110.69 2.45 110.75 2.81 110.78 2.88L110.78 2.89C110.83 3.02 110.88 3.08 110.92 3.18C109.01 1.81 106.09 2.61 107.63 5.25L107 5.01C104.84 4.17 102.15 3.27 100.18 4.78C99.3 5.62 100.28 6.76 101.18 7.03L101.02 7.01C99.3 6.71 95.71 5.99 95.19 8.24C95.01 9.05 95.55 9.64 96.23 9.96C94.79 9.96 93.37 10.2 92.13 10.9C90.95 11.74 91.9 13.14 93.14 13.08C92.76 13.55 92.63 14.36 93 14.87C92.3 15.06 91.65 15.3 91.05 15.67L90.89 15.69C89.69 15.84 88.33 15.93 87.67 17.1C86.7 19.66 90.15 19.56 91.63 18.66C91.54 18.8 91.47 18.96 91.44 19.12L90.96 19.26C89.15 19.76 87.1 20.32 85.94 21.85C85.41 22.73 86.15 24.22 87.26 23.95C84.24 25.39 85.4 29.2 88.36 27.22C88.49 27.35 88.66 27.44 88.84 27.49L88.22 27.82C86.63 28.69 84.73 29.89 85.06 31.86C85.37 32.91 86.82 32.71 87.55 32.31C86.27 33.42 85.06 34.62 83.96 35.92L83.65 36.28C82.8 37.31 81.31 39.2 82.92 40.19C84.91 41.21 85.9 38.21 87.06 37.14C86.13 39.32 89.14 40.84 90.19 38.65C90.36 38.68 90.54 38.68 90.71 38.66C89.81 39.62 87.36 46.2 90.4 44.76C90.89 44.24 91.31 43.68 91.71 43.09C91.22 46.86 90.86 50.65 90.63 54.44L90.55 55.81C90.46 57.24 90.4 58.67 90.56 60.09C90.74 61.74 91.22 63.3 91.93 64.79C92.6 66.18 93.45 67.46 94.42 68.63C94.95 69.26 95.5 69.88 96.18 70.34C96.72 70.7 97.36 70.94 97.97 71.18C98.96 72.17 100.24 72.92 101.48 73.52C103.54 74.51 105.76 75.06 108.01 75.33C110.32 75.61 112.64 75.54 114.93 75.14C117.11 74.77 119.45 73.8 120.79 71.96C120.91 71.8 120.69 71.65 120.55 71.71C116.65 73.52 112.26 74 108.01 73.43C106.03 73.16 104.08 72.61 102.27 71.76C100.74 71.04 99.45 69.99 98.08 69.04C97.81 68.68 97.54 68.33 97.23 68.01L96.75 67.5C96.39 67.12 96.04 66.74 95.72 66.32C94.73 65.05 93.91 63.6 93.37 62.07C92.32 59.1 92.61 55.88 92.79 52.78L92.81 52.51C93 49.2 93.31 45.9 93.74 42.61C93.92 41.24 94.12 39.88 94.34 38.52C94.69 37.94 95.07 37.39 95.49 36.87C95.14 38.2 96.33 40.05 97.78 39.17C99.44 37.75 99.36 35.45 100.75 33.71C102.19 31.48 112.14 27.13 115.1 26.52C114.62 27.22 113.75 27.7 113.55 28.52C109.91 31.74 115.84 33.46 117.69 28.87C117.65 30.4 117.49 31.91 117.15 33.4C116.66 34.78 116.27 38.75 118.75 37.55C119.94 37.89 120.84 36.88 120.99 35.74C121.85 38.32 121.04 42.45 122.61 44.35C123.09 44.85 123.83 44.52 124.08 43.95C125.54 43.57 125.41 41.87 125.59 40.65C126.91 45.5 128.57 48.86 128.8 53.92C127.77 55.38 130.02 56.46 130.99 55.29C132.34 53.32 131.09 50.64 130.77 48.49C131.16 48.47 131.53 48.3 131.85 47.93C132.02 48.6 131.92 49.49 131.86 50.22C132.72 53.59 135.99 51.43 135.85 48.7C135.99 49.47 136.1 50.25 136.17 51.04C135.54 51.76 135.07 52.64 134.79 53.56C134.59 54.23 135.27 54.63 135.79 54.53C136.06 55.47 137.25 56.15 138.04 55.25C138.82 54.47 138.95 53.33 139.01 52.2C139.12 52.08 139.19 51.93 139.17 51.75C139.17 51.58 139.12 51.43 139.06 51.31C139.07 51.08 139.09 50.85 139.11 50.63C139.71 52.5 139.32 54.47 139.27 56.39C138.21 56.98 137 57.24 135.78 57.49L135.61 57.53C135.23 57.61 135.11 58.17 135.39 58.4C134.64 59.14 133.99 60.03 133.36 60.84C132.52 61.92 131.71 63.04 130.93 64.16L130.47 64.82C129.13 66.74 127.27 69.34 128.1 71.7C128.22 72.02 128.69 72.14 128.87 71.8C129.48 70.68 129.82 69.45 130.39 68.31C130.95 67.2 131.66 66.17 132.35 65.14L132.75 64.55C133.42 63.55 134.08 62.54 134.7 61.51L135.13 60.8C135.53 60.13 135.92 59.44 136.22 58.72C137.28 58.97 138.38 58.79 139.39 58.35L139.4 58.42L139.43 58.55C139.57 59.16 140.41 59.57 140.95 59.17C142.23 58.2 142.75 56.76 142.89 55.22C143.14 54.78 143.36 54.32 143.54 53.85C143.63 54.8 143.99 55.72 145.12 55.69C147.07 55.53 147.27 53.68 146.74 51.83C149.05 52.54 149.32 49.26 148.59 47.53C148.86 47.45 149.11 47.29 149.26 47.07L149.38 47.28C149.82 48.05 150.33 48.8 151.03 49.2C152.01 49.76 153.44 49.07 153.37 47.84C153.16 45.83 151.41 44.3 150.34 42.69C150.53 42.71 150.73 42.71 150.92 42.67C153.06 43.87 154.08 41.05 153.32 39.42C152.77 37.96 151.77 36.7 150.7 35.59L151.02 35.77C151.58 36.11 152.21 36.43 152.84 36.3C156.91 38.98 158.24 34.47 153.67 33.06L153.68 33.04C154.14 32.6 154.33 31.89 153.98 31.19C155.65 31.78 158.05 30.45 156.57 28.62C155.6 27.71 154.47 26.93 153.21 26.52C153.27 26.19 153.29 25.85 153.27 25.5L153.34 25.51C154.14 25.63 155.12 25.95 155.61 25.09C155.86 24.66 155.83 23.95 155.42 23.61C154.02 22.45 152.41 21.49 150.67 21.1C150.61 20.89 150.54 20.68 150.47 20.47C151.96 20.44 153.62 18.46 151.92 17.34C150.42 16.57 148.87 16.08 147.18 16.13C148.17 15.14 147.59 13.37 146.27 13.09C147.13 11.25 145 10.29 143.41 10.59C143.46 9.77 143.03 8.85 142.18 8.65C142.63 6.05 139.89 6.3 138.17 6.91C138.74 5.91 138.15 4.73 137.14 4.38C135.48 4.01 133.89 5.59 132.63 6.56C133.06 5.55 132.69 4.61 131.67 4.21C130.61 3.79 129.47 4.6 128.59 5.14C128.11 4.54 127.29 4.34 126.55 4.38C126.47 4.15 126.36 3.96 126.21 3.81C126.22 2.41 123.84 1.64 123.01 2.95C122.87 2.04 122.5 1.17 121.97 0.55ZM92.27 25.92L92.24 26.07C92.21 26.1 92.17 26.13 92.14 26.17C92.03 26.19 91.93 26.22 91.83 26.25C91.98 26.13 92.12 26.02 92.27 25.92ZM90.44 22.25L90.47 22.29C90.47 22.3 90.48 22.31 90.48 22.32C90.39 22.35 90.31 22.38 90.22 22.42L90.08 22.48L90.04 22.5C90.17 22.41 90.3 22.33 90.44 22.25ZM111.81 3.77L111.89 3.79C111.91 3.79 111.94 3.8 111.96 3.81C111.97 3.81 111.98 3.81 111.98 3.81L111.96 3.81C112 3.84 112.05 3.87 112.09 3.9C112.05 3.89 112.01 3.89 111.97 3.89C111.92 3.85 111.86 3.81 111.81 3.77Z" fill="#000000" fill-opacity="1.000000" fill-rule="evenodd"/>
	<path id="Ink" d="M102.76 57.64C102.26 56.76 100.78 56.9 100.55 57.93C100.09 60.01 102.57 61.93 104.45 61.98C106.32 62.03 108.42 60.43 108.15 58.42C108.09 57.92 107.42 57.98 107.19 58.29L107.11 58.41C106.49 59.24 105.68 60.1 104.54 59.89C104.06 59.81 103.63 59.52 103.35 59.13C103 58.67 103.04 58.12 102.76 57.64ZM114.67 42.41C114.41 42.34 114.16 42.36 113.93 42.46C113.43 42.55 113.01 42.97 112.86 43.45C112.85 43.49 112.84 43.53 112.82 43.57L112.8 43.63L112.86 43.48C112.83 43.63 112.71 43.79 112.67 43.94C112.61 44.12 112.6 44.34 112.62 44.54C112.46 44.54 112.3 44.55 112.14 44.56L111.99 44.58C111.13 44.66 110.18 44.8 109.67 45.55C109.38 45.97 109.65 46.72 110.18 46.8C110.99 46.92 111.69 46.47 112.5 46.38C113.26 46.3 114.06 46.35 114.81 46.49C116.37 46.77 117.8 47.4 119.31 47.8L119.52 47.85L119.52 47.85C119.78 47.91 120.07 47.55 119.82 47.34C118.6 46.34 117.05 45.53 115.51 45.04C115.74 44.68 115.81 44.21 115.65 43.83C115.63 43.75 115.6 43.68 115.57 43.6L115.51 43.44C115.5 43.37 115.49 43.3 115.47 43.22L115.46 43.2L115.46 43.2C115.35 42.83 115.05 42.51 114.67 42.41ZM99.17 42.46C98.84 42.13 98.37 42.18 98.02 42.44L97.98 42.48C97.65 42.62 97.38 42.94 97.2 43.23C97.02 43.54 96.9 43.85 96.89 44.19C96.09 44.19 95.32 44.43 94.73 45.08C94.54 45.29 94.41 45.61 94.51 45.9L94.57 46.07C94.77 46.6 95.66 46.91 95.97 46.28L95.98 46.25C96.3 45.5 97.54 45.58 98.19 45.66C98.65 45.71 99.1 45.82 99.55 45.95C99.7 46 99.86 46.05 100.01 46.1L100.16 46.15C100.25 46.17 100.67 46.41 100.41 46.35C100.34 46.34 100.28 46.44 100.36 46.48C100.67 46.63 101.01 46.32 100.99 45.98C100.95 45.39 100.01 45.06 99.56 44.86L99.53 44.85C99.36 44.77 99.18 44.69 98.99 44.62C99.1 44.46 99.18 44.29 99.26 44.1C99.32 43.92 99.37 43.75 99.4 43.56C99.42 43.47 99.42 43.38 99.4 43.29L99.39 43.26C99.4 43.2 99.41 43.14 99.41 43.07L99.41 43.05L99.41 43.05C99.4 42.83 99.31 42.61 99.17 42.46ZM104.48 48.78C103.2 49.17 101.1 50.25 101.76 51.91C102.69 53.43 105.15 52.31 106.35 51.82C107.42 51.46 107.98 52.97 106.94 53.42C98.37 56.81 98.4 47.86 104.17 47.99C104.8 48 104.82 48.64 104.48 48.78ZM115.81 37.1L115.59 37.04C114.46 36.71 113.31 36.14 112.3 37.03C111.91 37.37 111.83 38.09 112.11 38.53C112.75 39.51 113.71 39.36 114.75 39.45C115.54 39.51 116.31 39.74 117.05 40.03C117.66 40.27 118.22 40.61 118.74 40.98C119.26 41.35 119.62 41.92 120.15 42.25C120.34 42.37 120.57 42.25 120.64 42.05C120.89 41.35 120.47 40.49 120.11 39.89C119.68 39.17 119.02 38.58 118.31 38.13C117.54 37.64 116.68 37.36 115.81 37.1ZM99.33 36.35C97.42 36.35 95.58 37.42 94.51 38.98C94.14 39.51 94.41 40.29 94.93 40.6C95.52 40.94 96.14 40.69 96.53 40.2L96.55 40.17C97.16 39.35 97.95 38.71 98.89 38.29C99.35 38.09 99.86 37.92 100.35 37.84L100.51 37.81C100.73 37.77 100.99 37.74 101.2 37.77C101.31 37.79 101.4 37.82 101.5 37.88C101.45 37.97 101.57 38.09 101.67 38.03C102.15 37.77 102.09 37.3 101.7 36.94C101.14 36.43 100.05 36.35 99.33 36.35Z" fill="#000000" fill-opacity="1.000000" fill-rule="evenodd"/>
</svg>
